<?xml version="1.0" encoding="UTF-8"?>
<svg version="1.1" xmlns="http://www.w3.org/2000/svg" width="24" height="24">
<path d="M0 0 C3.125 1.875 3.125 1.875 5 5 C5.98876625 10.02622846 5.7769173 13.70513784 3.125 18.125 C-1.29486216 20.7769173 -4.97377154 20.98876625 -10 20 C-13.125 18.125 -13.125 18.125 -15 15 C-15.98876625 9.97377154 -15.7769173 6.29486216 -13.125 1.875 C-8.70513784 -0.7769173 -5.02622846 -0.98876625 0 0 Z M-7 8 C-7 9.32 -7 10.64 -7 12 C-5.68 11.67 -4.36 11.34 -3 11 C-3 10.34 -3 9.68 -3 9 C-4.32 8.67 -5.64 8.34 -7 8 Z " fill="#000000" transform="translate(17,2)"/>
</svg>
